<svg width="25" height="24" viewBox="0 0 25 24" fill="none" xmlns="http://www.w3.org/2000/svg">
<path fill-rule="evenodd" clip-rule="evenodd" d="M19.5173 3H4.50402C3.66325 3 3.00267 3.65999 3.00267 4.50001V19.5C3.00267 20.34 3.66325 21 4.50402 21H11.4102H15.0134H19.5174C20.3581 21 21.0187 20.34 21.0187 19.5V4.50001C21.0187 3.65999 20.3581 3 19.5173 3ZM12.0626 14.2609H9.80872V11.9652H12.0626V9.95653C12.0626 8.32088 13.3022 6.94349 14.8799 6.8H17.4155V9.09566H15.1616C14.6827 9.09566 14.3164 9.46869 14.3164 9.95653V11.9652H17.1338V14.2609H14.3165V20.2H12.0626V14.2609ZM14.9418 20.2H19.3386C19.8369 20.2 20.218 19.8193 20.218 19.3214V4.67857C20.218 4.1807 19.837 3.8 19.3387 3.8H4.68274C4.18442 3.8 3.80338 4.1807 3.80338 4.67857V19.3214C3.80338 19.8193 4.18442 20.2 4.68274 20.2L11.4244 20.2V14.9286H9.07947V11.4143H11.4244V9.94997C11.4244 7.98784 12.9487 6.31855 14.9125 6.14284H18.1662V9.65713H15.235C15.0591 9.65713 14.9418 9.77426 14.9418 9.94997V11.4143H17.873V14.9286H14.9418V20.2Z" fill="white"/>
<mask id="mask0_1_100" style="mask-type:alpha" maskUnits="userSpaceOnUse" x="3" y="3" width="19" height="18">
<path fill-rule="evenodd" clip-rule="evenodd" d="M19.5173 3H4.50402C3.66325 3 3.00267 3.65999 3.00267 4.50001V19.5C3.00267 20.34 3.66325 21 4.50402 21H11.4102H15.0134H19.5174C20.3581 21 21.0187 20.34 21.0187 19.5V4.50001C21.0187 3.65999 20.3581 3 19.5173 3ZM12.0626 14.2609H9.80872V11.9652H12.0626V9.95653C12.0626 8.32088 13.3022 6.94349 14.8799 6.8H17.4155V9.09566H15.1616C14.6827 9.09566 14.3164 9.46869 14.3164 9.95653V11.9652H17.1338V14.2609H14.3165V20.2H12.0626V14.2609ZM14.9418 20.2H19.3386C19.8369 20.2 20.218 19.8193 20.218 19.3214V4.67857C20.218 4.1807 19.837 3.8 19.3387 3.8H4.68274C4.18442 3.8 3.80338 4.1807 3.80338 4.67857V19.3214C3.80338 19.8193 4.18442 20.2 4.68274 20.2L11.4244 20.2V14.9286H9.07947V11.4143H11.4244V9.94997C11.4244 7.98784 12.9487 6.31855 14.9125 6.14284H18.1662V9.65713H15.235C15.0591 9.65713 14.9418 9.77426 14.9418 9.94997V11.4143H17.873V14.9286H14.9418V20.2Z" fill="white"/>
</mask>
<g mask="url(#mask0_1_100)">
</g>
</svg>
