<svg width="25" height="24" viewBox="0 0 25 24" fill="none" xmlns="http://www.w3.org/2000/svg">
<path fill-rule="evenodd" clip-rule="evenodd" d="M16.0468 3H7.97433C5.23296 3 3.00267 5.22841 3.00267 7.96735V16.0327C3.00267 18.7717 5.23296 21 7.97433 21H16.0468C18.7884 21 21.0187 18.7716 21.0187 16.0327V7.96735C21.0188 5.22841 18.7884 3 16.0468 3ZM20.0179 16.3579C20.0179 18.3662 18.3825 20 16.3724 20H7.6488C5.63882 20.0001 4.00356 18.3662 4.00356 16.3579V7.64212C4.00356 5.63392 5.63882 4 7.6488 4H16.3723C18.3824 4 20.0178 5.63392 20.0178 7.64212V16.3579H20.0179ZM7.36841 12.0002C7.36841 9.4427 9.45089 7.36207 12.0107 7.36207C14.5705 7.36207 16.6529 9.4427 16.6529 12.0002C16.6529 14.5576 14.5705 16.6381 12.0107 16.6381C9.45089 16.6381 7.36841 14.5576 7.36841 12.0002ZM16.4495 5.83418C16.5981 5.68509 16.8048 5.6 17.0151 5.6C17.2262 5.6 17.433 5.68509 17.5814 5.83418C17.7307 5.98255 17.8158 6.18909 17.8158 6.4C17.8158 6.61018 17.7307 6.81673 17.5814 6.96582C17.4322 7.11418 17.2262 7.2 17.0151 7.2C16.8048 7.2 16.598 7.11418 16.4495 6.96582C16.3003 6.81673 16.2144 6.61025 16.2144 6.4C16.2144 6.18909 16.3002 5.98255 16.4495 5.83418Z" fill="white"/>
<mask id="mask0_1_102" style="mask-type:alpha" maskUnits="userSpaceOnUse" x="7" y="5" width="11" height="12">
<path fill-rule="evenodd" clip-rule="evenodd" d="M16.4495 5.83416C16.5981 5.68507 16.8047 5.59998 17.0151 5.59998C17.2262 5.59998 17.4329 5.68507 17.5814 5.83416C17.7306 5.98252 17.8158 6.18907 17.8158 6.39998C17.8158 6.61016 17.7306 6.8167 17.5814 6.96579C17.4322 7.11416 17.2262 7.19998 17.0151 7.19998C16.8047 7.19998 16.598 7.11416 16.4495 6.96579C16.3003 6.8167 16.2144 6.61023 16.2144 6.39998C16.2144 6.18907 16.3002 5.98252 16.4495 5.83416ZM12.0106 7.36204C9.45085 7.36204 7.36836 9.44268 7.36836 12.0002C7.36836 14.5576 9.45085 16.6381 12.0106 16.6381C14.5704 16.6381 16.6529 14.5576 16.6529 12.0002C16.6529 9.44268 14.5704 7.36204 12.0106 7.36204ZM12.0107 15.8397C9.89149 15.8397 8.16725 14.1173 8.16725 12C8.16725 9.88255 9.89136 8.15998 12.0107 8.15998C14.13 8.15998 15.8541 9.88255 15.8541 12C15.8541 14.1173 14.1298 15.8397 12.0107 15.8397Z" fill="white"/>
</mask>
<g mask="url(#mask0_1_102)">
</g>
</svg>
