<svg width="25" height="24" viewBox="0 0 25 24" fill="none" xmlns="http://www.w3.org/2000/svg">
<path fill-rule="evenodd" clip-rule="evenodd" d="M20.5485 6.09487C20.6709 6.06362 20.8238 6.09487 20.9155 6.1886C21.0072 6.28233 21.0378 6.43856 21.0072 6.56358C20.732 7.46975 20.1816 8.12596 19.5089 8.46969V8.56342C19.5089 14.5942 15.1054 19.5 9.7235 19.5C6.69615 19.5 4.24984 18.9688 3.14898 18.0626C3.02667 17.9376 2.9655 17.7814 3.02667 17.5939C3.08781 17.4377 3.2407 17.3127 3.42419 17.3127C5.22836 17.2814 6.39036 16.844 7.27715 16.3127C5.5647 16.094 4.49443 15.2503 3.94401 13.6567C3.88284 13.5005 3.94401 13.3443 4.06632 13.2505C4.18863 13.1567 4.37212 13.1567 4.49443 13.2192C4.95312 13.5317 5.41181 13.5942 5.96222 13.5942C4.80022 12.8756 3.72994 11.6881 3.30184 10.2195C3.27125 10.0633 3.33243 9.87582 3.45474 9.81331C3.60763 9.71959 3.76053 9.75084 3.88284 9.84457C4.21922 10.1258 4.58619 10.3133 5.1366 10.407C3.94401 9.15711 3.21012 7.31352 4.24981 5.28243L4.43329 4.90744L4.73901 5.21992C6.63495 7.25101 8.37795 8.18843 11.5582 8.81338V8.6884C11.5582 6.40735 13.3012 4.5325 15.4723 4.50124C16.3285 4.50124 17.5211 5.12619 18.0104 5.40741C18.0221 5.40741 18.0338 5.41197 18.0437 5.41587C18.0599 5.42217 18.0716 5.42673 18.0716 5.40741C18.6832 5.21996 19.4171 4.90748 20.2733 4.5325C20.3956 4.47002 20.5485 4.50128 20.6402 4.59501C20.732 4.68877 20.7626 4.81375 20.7014 4.96999C20.5485 5.40745 20.3039 5.87616 19.9369 6.31362L20.5485 6.09487ZM18.7521 8.23772L18.9301 8.17735C19.4938 7.96612 19.8201 7.51342 20.0278 7.12114L18.8708 7.51346C18.7225 7.57383 18.5445 7.51346 18.4852 7.36256C18.4258 7.21166 18.4555 7.03058 18.5741 6.94005C19.0488 6.5477 19.4048 6.12519 19.6718 5.6725C19.0785 5.91392 18.5445 6.12519 18.0995 6.27609C17.9215 6.33643 17.7435 6.30624 17.5655 6.21572L17.5467 6.20529C17.1979 6.01158 16.0993 5.40141 15.4295 5.43104C13.6495 5.46123 12.2255 7.00039 12.2255 8.8715V9.71651L11.8695 9.65614C8.60623 9.05255 6.79656 8.17735 4.8979 6.27606C4.0079 8.56971 5.84721 10.1692 6.47022 10.6219L7.21185 11.1652H6.29218C5.69884 11.1652 5.0462 11.1048 4.45287 10.8332C5.10555 12.2214 6.44054 13.2475 7.56786 13.5795L7.47887 14.1831C7.24156 14.1831 7.0042 14.1831 6.76688 14.2133C6.14388 14.2434 5.58022 14.2434 5.04623 14.0624C5.63957 15.2092 6.6779 15.692 8.36887 15.692H9.25887L8.51721 16.2353C7.59753 16.9596 6.41087 17.6235 4.36388 17.7744C5.34286 18.2573 7.1525 18.71 9.85217 18.71C14.4776 18.71 18.7521 13.999 18.7521 8.75079V8.23772Z" fill="white"/>
<mask id="mask0_1_101" style="mask-type:alpha" maskUnits="userSpaceOnUse" x="3" y="4" width="19" height="16">
<path fill-rule="evenodd" clip-rule="evenodd" d="M20.5485 6.09487C20.6709 6.06362 20.8238 6.09487 20.9155 6.1886C21.0072 6.28233 21.0378 6.43856 21.0072 6.56358C20.732 7.46975 20.1816 8.12596 19.5089 8.46969V8.56342C19.5089 14.5942 15.1054 19.5 9.7235 19.5C6.69615 19.5 4.24984 18.9688 3.14898 18.0626C3.02667 17.9376 2.9655 17.7814 3.02667 17.5939C3.08781 17.4377 3.2407 17.3127 3.42419 17.3127C5.22836 17.2814 6.39036 16.844 7.27715 16.3127C5.5647 16.094 4.49443 15.2503 3.94401 13.6567C3.88284 13.5005 3.94401 13.3443 4.06632 13.2505C4.18863 13.1567 4.37212 13.1567 4.49443 13.2192C4.95312 13.5317 5.41181 13.5942 5.96222 13.5942C4.80022 12.8756 3.72994 11.6881 3.30184 10.2195C3.27125 10.0633 3.33243 9.87582 3.45474 9.81331C3.60763 9.71959 3.76053 9.75084 3.88284 9.84457C4.21922 10.1258 4.58619 10.3133 5.1366 10.407C3.94401 9.15711 3.21012 7.31352 4.24981 5.28243L4.43329 4.90744L4.73901 5.21992C6.63495 7.25101 8.37795 8.18843 11.5582 8.81338V8.6884C11.5582 6.40735 13.3012 4.5325 15.4723 4.50124C16.3285 4.50124 17.5211 5.12619 18.0104 5.40741C18.0221 5.40741 18.0338 5.41197 18.0437 5.41587C18.0599 5.42217 18.0716 5.42673 18.0716 5.40741C18.6832 5.21996 19.4171 4.90748 20.2733 4.5325C20.3956 4.47002 20.5485 4.50128 20.6402 4.59501C20.732 4.68877 20.7626 4.81375 20.7014 4.96999C20.5485 5.40745 20.3039 5.87616 19.9369 6.31362L20.5485 6.09487ZM18.7521 8.23772L18.9301 8.17735C19.4938 7.96612 19.8201 7.51342 20.0278 7.12114L18.8708 7.51346C18.7225 7.57383 18.5445 7.51346 18.4852 7.36256C18.4258 7.21166 18.4555 7.03058 18.5741 6.94005C19.0488 6.5477 19.4048 6.12519 19.6718 5.6725C19.0785 5.91392 18.5445 6.12519 18.0995 6.27609C17.9215 6.33643 17.7435 6.30624 17.5655 6.21572L17.5467 6.20529C17.1979 6.01158 16.0993 5.40141 15.4295 5.43104C13.6495 5.46123 12.2255 7.00039 12.2255 8.8715V9.71651L11.8695 9.65614C8.60623 9.05255 6.79656 8.17735 4.8979 6.27606C4.0079 8.56971 5.84721 10.1692 6.47022 10.6219L7.21185 11.1652H6.29218C5.69884 11.1652 5.0462 11.1048 4.45287 10.8332C5.10555 12.2214 6.44054 13.2475 7.56786 13.5795L7.47887 14.1831C7.24156 14.1831 7.0042 14.1831 6.76688 14.2133C6.14388 14.2434 5.58022 14.2434 5.04623 14.0624C5.63957 15.2092 6.6779 15.692 8.36887 15.692H9.25887L8.51721 16.2353C7.59753 16.9596 6.41087 17.6235 4.36388 17.7744C5.34286 18.2573 7.1525 18.71 9.85217 18.71C14.4776 18.71 18.7521 13.999 18.7521 8.75079V8.23772Z" fill="white"/>
</mask>
<g mask="url(#mask0_1_101)">
</g>
</svg>
