<svg width="192" height="21" viewBox="0 0 192 21" fill="none" xmlns="http://www.w3.org/2000/svg">
<g id="white-logo">
<g id="XMLID_234_">
<path id="XMLID_243_" d="M14.4744 1.84618V12.4616C14.4744 16 12.9346 17.4616 9.23898 17.4616C5.54339 17.4616 4.00356 16 4.00356 12.4616V1.38464H0.461949C0.230975 1.38464 0 1.61541 0 1.84618V12.6154C0 18.5385 3.77258 20.6154 9.23898 20.6154C14.7054 20.6154 18.478 18.5385 18.478 12.6154V1.38464H14.9364C14.7054 1.38464 14.4744 1.53849 14.4744 1.84618Z" fill="white"/>
<path id="XMLID_242_" d="M65.9817 4.46157C66.2897 4.46157 66.4437 4.38464 66.5207 4.15387L67.5216 1.61541C67.5985 1.46157 67.5216 1.38464 67.3676 1.38464H53.0472C51.7383 1.38464 51.1994 1.76926 51.1994 2.69234V19.1539C51.1994 19.9231 51.5843 20.3077 52.5852 20.3077H65.9047C66.2127 20.3077 66.3667 20.2308 66.4437 20L67.4446 17.4616C67.5216 17.3077 67.4446 17.2308 67.2906 17.2308H55.1259V13.8462C55.1259 12.6923 55.7419 12.1539 57.5127 12.1539H62.8251C63.133 12.1539 63.287 12.077 63.364 11.8462L64.3649 9.38464C64.4419 9.2308 64.3649 9.15387 64.2109 9.15387H55.2029V4.38464H65.9817V4.46157Z" fill="white"/>
<path id="XMLID_238_" fill-rule="evenodd" clip-rule="evenodd" d="M40.8055 10.3077C42.3453 9.46157 42.9613 8.00003 42.9613 6.15387C42.9613 2.00003 39.5736 1.38464 36.032 1.38464H27.9479C26.6391 1.38464 26.1001 1.76926 26.1001 2.69234V19.1539C26.1001 19.9231 26.4851 20.3077 27.486 20.3077H37.4179C41.1905 20.3077 43.8082 18.8462 43.8082 15.077C43.8852 12.7693 42.9613 10.8462 40.8055 10.3077ZM30.1037 4.38464H36.34C38.4188 4.38464 39.0347 5.15387 39.0347 6.76926C39.0347 8.38464 38.4188 9.15387 36.34 9.15387H30.1037V4.38464ZM30.1037 17.2308H37.1099C39.3427 17.2308 39.9586 16.4615 39.9586 14.6923C39.9586 12.9231 39.3427 12.0769 37.1099 12.0769H32.4904C30.7196 12.0769 30.1037 12.6154 30.1037 13.7692V17.2308Z" fill="white"/>
<path id="XMLID_235_" fill-rule="evenodd" clip-rule="evenodd" d="M88.0783 12.6923L92.3128 20C92.3898 20.077 92.3898 20.3077 92.2358 20.3077H88.6172C88.3093 20.3077 88.2323 20.2308 88.0783 20L84.2287 13.077H80.7641C78.9933 13.077 78.3774 13.6154 78.3774 14.7693V20.3077H74.9127C74.6818 20.3077 74.4508 20.077 74.4508 19.8462V2.69234C74.4508 1.76926 74.9897 1.38464 76.2986 1.38464H84.3827C89.0792 1.38464 91.9279 2.61541 91.9279 7.2308C91.9279 10.7693 90.1571 12.1539 88.0783 12.6923ZM78.3004 10.1539H84.9216C87.3854 10.1539 87.9243 9.2308 87.9243 7.2308C87.9243 5.30772 87.3854 4.38464 84.9216 4.38464H78.3004V10.1539Z" fill="white"/>
</g>
<g id="XMLID_224_">
<path id="XMLID_232_" d="M121.801 18.6154L121.724 20.3077H107.711V1.38464H121.185L121.262 3.15387H109.636V9.69234H119.645V11.2308H109.636V18.6154H121.801Z" fill="#57AD56" stroke="#57AD56" stroke-width="0.25"/>
<g id="XMLID_229_">
<path fill-rule="evenodd" clip-rule="evenodd" d="M133.426 15.3846H144.59L146.746 20.3077H148.902L140.202 1.38464H137.969L129.192 20.3077H131.271L133.426 15.3846ZM134.119 13.7693L138.2 4.61546L138.97 2.69238H139.047L139.817 4.61546L143.82 13.7693H134.119Z" fill="#57AD56"/>
<path d="M144.59 15.3846L144.705 15.3345L144.672 15.2596H144.59V15.3846ZM133.426 15.3846V15.2596H133.345L133.312 15.3345L133.426 15.3846ZM146.746 20.3077L146.631 20.3579L146.664 20.4327H146.746V20.3077ZM148.902 20.3077V20.4327H149.097L149.015 20.2555L148.902 20.3077ZM140.202 1.38464L140.315 1.33243L140.282 1.25964H140.202V1.38464ZM137.969 1.38464V1.25964H137.889L137.855 1.33205L137.969 1.38464ZM129.192 20.3077L129.078 20.2551L128.996 20.4327H129.192V20.3077ZM131.271 20.3077V20.4327H131.352L131.385 20.3579L131.271 20.3077ZM138.2 4.61546L138.314 4.66639L138.316 4.66192L138.2 4.61546ZM134.119 13.7693L134.005 13.7184L133.927 13.8943H134.119V13.7693ZM138.97 2.69238V2.56738H138.885L138.854 2.64592L138.97 2.69238ZM139.047 2.69238L139.163 2.64592L139.131 2.56738H139.047V2.69238ZM139.817 4.61546L139.7 4.66194L139.702 4.66555L139.817 4.61546ZM143.82 13.7693V13.8943H144.011L143.935 13.7192L143.82 13.7693ZM144.59 15.2596H133.426V15.5096H144.59V15.2596ZM146.86 20.2576L144.705 15.3345L144.476 15.4348L146.631 20.3579L146.86 20.2576ZM148.902 20.1827H146.746V20.4327H148.902V20.1827ZM140.088 1.43686L148.788 20.3599L149.015 20.2555L140.315 1.33243L140.088 1.43686ZM137.969 1.50964H140.202V1.25964H137.969V1.50964ZM129.305 20.3603L138.082 1.43724L137.855 1.33205L129.078 20.2551L129.305 20.3603ZM131.271 20.1827H129.192V20.4327H131.271V20.1827ZM133.312 15.3345L131.156 20.2576L131.385 20.3579L133.541 15.4348L133.312 15.3345ZM138.086 4.56457L134.005 13.7184L134.233 13.8202L138.314 4.66635L138.086 4.56457ZM138.854 2.64592L138.084 4.569L138.316 4.66192L139.086 2.73884L138.854 2.64592ZM139.047 2.56738H138.97V2.81738H139.047V2.56738ZM139.933 4.569L139.163 2.64592L138.931 2.73884L139.701 4.66192L139.933 4.569ZM143.935 13.7192L139.931 4.56537L139.702 4.66555L143.706 13.8194L143.935 13.7192ZM134.119 13.8943H143.82V13.6443H134.119V13.8943Z" fill="#57AD56"/>
</g>
<path id="XMLID_227_" d="M162.76 3.15387V20.3077H160.835V3.15387H153.752L153.829 1.38464H169.92V3.15387H162.76Z" fill="#57AD56" stroke="#57AD56" stroke-width="0.25"/>
<path id="XMLID_225_" d="M183.625 20.6923C181.007 20.6923 178.928 20.0769 177.234 19.0769L177.542 17.3846C179.313 18.3846 181.315 19 183.702 19C187.243 19 189.091 17.3846 189.091 15.0769C189.091 10.0769 177.542 12.6923 177.542 6.23077C177.542 3.46154 179.621 1 184.472 1C186.704 1 188.706 1.38462 190.323 2.15385L190.015 3.76923C188.244 3.07692 186.55 2.69231 184.549 2.69231C180.776 2.69231 179.39 4.38462 179.39 6.07692C179.39 10.8462 190.939 8.15385 190.939 14.9231C190.862 18.3077 188.398 20.6923 183.625 20.6923Z" fill="#57AD56" stroke="#57AD56" stroke-width="0.25"/>
</g>
</g>
</svg>
